<?xml version="1.0" encoding="utf-8"?>
<!-- Generator: Adobe Illustrator 22.0.0, SVG Export Plug-In . SVG Version: 6.00 Build 0)  -->
<svg version="1.1" id="Layer_1" xmlns="http://www.w3.org/2000/svg" xmlns:xlink="http://www.w3.org/1999/xlink" x="0px" y="0px"
	 viewBox="0 0 32 32" style="enable-background:new 0 0 32 32;" xml:space="preserve">
<style type="text/css">
	.st0{fill:#FFFFFF;}
</style>
<title>Noun_Project_100Icon_1px_grid_thin</title>
<path class="st0" d="M23.9,29.7L9.7,16L23.9,2.3c0.2-0.3,0.3-0.7,0-1C23.8,1.1,23.6,1,23.4,1c-0.2,0-0.4,0-0.6,0.2L8.1,15.4
	C8,15.6,7.9,15.8,7.9,16c0,0.2,0.1,0.4,0.2,0.5l14.7,14.3c0,0,0,0,0,0L22.7,31l0.7,0c0,0,0,0,0,0c0.2,0,0.4-0.1,0.5-0.2
	c0.1-0.1,0.2-0.3,0.2-0.5C24.1,30,24,29.8,23.9,29.7z"/>
</svg>
