<?xml version="1.0" encoding="utf-8"?>
<!-- Generator: Adobe Illustrator 22.0.0, SVG Export Plug-In . SVG Version: 6.00 Build 0)  -->
<svg version="1.1" id="Layer_1" xmlns="http://www.w3.org/2000/svg" xmlns:xlink="http://www.w3.org/1999/xlink" x="0px" y="0px"
	 viewBox="0 0 32 32" style="enable-background:new 0 0 32 32;" xml:space="preserve">
<style type="text/css">
	.st0{fill:#FFFFFF;}
</style>
<title>Upload s25.1</title>
<desc>Created with Sketch.</desc>
<g>
	<path class="st0" d="M16,0.7C9,0.7,2.9,5.4,1.1,12.2C1,12.6,1.3,13,1.6,13s0.7-0.1,0.8-0.5C4,6.4,9.6,2,16,2c7.7,0,14,6.3,14,14
		c0,7.7-6.3,14-14,14c-6.4,0-12-4.3-13.6-10.5c0-0.2-0.2-0.3-0.3-0.4C2,19.1,1.8,19,1.6,19.1c-0.2,0-0.3,0.2-0.4,0.3
		c-0.1,0.2-0.1,0.3-0.1,0.5C2.9,26.7,9,31.4,16,31.4c8.5,0,15.4-6.9,15.4-15.4C31.4,7.6,24.5,0.7,16,0.7z"/>
	<path class="st0" d="M4.9,16.1c0,0.4,0.3,0.7,0.7,0.7h15.8l-6.8,6.8c-0.2,0.2-0.2,0.4-0.2,0.6c0.1,0.2,0.3,0.4,0.5,0.5
		c0.1,0,0.1,0,0.2,0c0.2,0,0.3-0.1,0.5-0.2l8-8l0,0c0.1-0.1,0.2-0.3,0.2-0.5c0-0.2-0.1-0.4-0.2-0.5l-8-7.9c-0.2-0.2-0.4-0.2-0.6-0.2
		c-0.2,0.1-0.4,0.3-0.5,0.5c-0.1,0.2,0,0.5,0.2,0.6l6.8,6.8H5.6C5.2,15.4,4.9,15.7,4.9,16.1z"/>
</g>
</svg>
